<svg width="58" height="55" viewBox="0 0 58 55" fill="none" xmlns="http://www.w3.org/2000/svg">
<path d="M27.72 0H30.195C35.2 0.66 40.26 2.585 43.78 6.27C47.08 9.625 48.84 14.135 49.665 18.7C50.545 19.415 51.48 20.185 52.085 21.175C53.79 21.78 55.33 22.935 56.21 24.53C57.145 26.18 57.585 27.995 57.915 29.755V32.23C57.42 35.035 56.43 38.115 54.01 39.82C53.295 40.37 52.25 40.425 51.7 41.25C51.205 42.02 50.545 42.625 49.775 43.175C49.445 45.485 48.675 47.905 47.08 49.665C45.375 51.59 42.79 52.525 40.26 52.58C38.775 52.635 37.235 52.14 35.805 52.635C34.815 53.295 34.375 54.615 33.165 55H26.51C24.475 54.945 23.045 52.855 23.265 50.93C23.32 49.335 24.75 48.015 26.345 47.905C28.545 47.74 30.855 47.74 33.055 48.07C34.32 48.235 35.09 49.28 35.805 50.215C38.555 50.38 41.47 50.38 44 49.17C45.98 48.235 47.135 46.09 47.41 44C47.685 42.9 46.585 42.405 45.925 41.745C45.265 41.195 45.1 40.205 45.045 39.38C44.825 37.18 45.045 34.925 45.1 32.725C45.21 29.315 45.045 25.905 45.21 22.55C45.265 21.065 45.925 19.47 47.41 18.865C46.805 14.08 44.44 9.515 40.645 6.545C34.155 0.99 23.65 0.935 17.105 6.435C13.475 9.515 11.33 14.08 10.505 18.755C11.66 19.36 12.375 20.515 12.595 21.78C13.09 24.2 12.815 26.73 12.815 29.205C12.705 32.285 13.035 35.31 12.87 38.39C12.705 39.71 12.54 41.195 11.66 42.295C10.835 43.285 9.35 43.45 8.14 43.065C7.095 42.68 6.49 41.635 5.885 40.755C3.96 40.15 2.365 38.83 1.485 37.015C0.715 35.53 0.275 33.88 0 32.23V29.755C0.33 27.94 0.77 26.125 1.705 24.53C2.585 22.88 4.18 21.725 5.94 21.175C6.325 20.075 7.37 19.415 8.25 18.7C9.075 13.97 11 9.24 14.52 5.83C18.095 2.42 22.88 0.66 27.72 0ZM8.415 21.34C7.865 26.95 8.305 32.615 8.085 38.225C8.03 39.105 8.14 40.04 8.58 40.865C9.075 40.81 9.68 41.03 10.065 40.7C10.67 39.49 10.45 38.06 10.395 36.74C10.395 31.57 10.615 26.4 10.175 21.285C9.625 21.12 8.855 20.9 8.415 21.34ZM47.74 21.285C47.245 27.005 47.63 32.725 47.41 38.5C47.41 39.215 47.52 40.04 47.85 40.7C48.235 41.03 48.84 40.81 49.28 40.865C49.995 39.6 49.775 38.115 49.775 36.74C49.72 31.57 49.995 26.4 49.5 21.23C48.895 21.065 48.29 21.01 47.74 21.285ZM3.08 26.73C2.2 29.095 2.145 31.68 2.75 34.155C3.135 35.86 4.07 37.62 5.775 38.335C5.72 33.44 5.94 28.49 5.665 23.595C4.4 24.2 3.52 25.41 3.08 26.73ZM52.14 23.595C52.195 28.49 51.975 33.44 52.25 38.335C53.295 37.785 54.12 36.85 54.615 35.805C55.605 33.55 55.715 31.02 55.33 28.6C55 26.62 54.065 24.475 52.14 23.595ZM25.63 52.25C28.16 52.8 30.855 52.8 33.44 52.25C33.605 51.7 33.605 51.095 33.44 50.545C31.02 50.49 28.49 49.775 26.125 50.49C25.3 50.71 25.355 51.59 25.63 52.25Z" fill="#EAECF0"/>
</svg>
